<svg id="Capa_1" enable-background="new 0 0 512 512" height="512" viewBox="0 0 512 512" width="512" xmlns="http://www.w3.org/2000/svg"><g><path d="m499.124 181.156-24.139-3.314c-4.6-18.105-11.735-35.31-21.326-51.385l14.055-18.739c4.475-5.966 3.884-14.324-1.399-19.607l-42.426-42.427c-5.283-5.283-13.641-5.872-19.609-1.397l-18.737 14.055c-16.075-9.591-33.279-16.729-51.387-21.326l-3.314-24.141c-1.025-7.427-7.373-12.906-14.842-12.875h-59.993c-7.458 0-13.797 5.49-14.844 12.874l-3.325 24.15c-18.105 4.6-35.31 11.737-51.376 21.317l-18.737-14.055c-5.966-4.475-14.324-3.885-19.607 1.397l-42.427 42.427c-5.283 5.283-5.872 13.641-1.397 19.607l14.055 18.739c-8.828 14.764-16.454 32.217-21.328 51.385l-23.139 3.314c-7.385 1.047-12.874 7.386-12.874 14.844v59.993c-.022 7.48 5.479 13.808 12.874 14.844l23.15 3.323c.87 3.408 2.333 6.724 3.424 10.106l35.982-35.984c-.593-40.291 15.745-79.385 43.5-107.139 27.935-27.935 65.048-43.42 104.471-43.586 17.754-.093 34.623 10.529 41.752 27.75 7.013 16.831 3.201 36.118-9.747 49.065l-40.272 40.272 3.532 17.681 17.682 3.532 40.272-40.272c12.947-12.947 32.234-16.758 49.138-9.716 16.985 7.011 27.739 23.835 27.676 41.702-.167 39.443-15.652 76.556-43.586 104.491-27.109 27.109-66.019 44.105-107.141 43.5l-35.977 35.977c3.376 1.093 6.703 2.563 10.098 3.43l3.325 23.15c1.025 7.365 7.386 12.874 14.844 12.874h59.995c7.458 0 13.797-5.49 14.843-12.874l3.314-23.141c16.533-4.202 35.145-11.616 51.387-21.326l18.737 14.055c5.967 4.475 14.326 3.885 19.609-1.397l42.426-42.427c5.283-5.283 5.874-13.641 1.399-19.607l-14.055-18.739c9.58-16.064 16.718-33.268 21.315-51.376l24.15-3.323c7.386-1.047 12.876-7.386 12.876-14.844v-59.993c.019-7.478-5.481-13.828-12.877-14.844z"/><path d="m4.393 443.967c2.137 2.137 23.35 23.35 21.213 21.213l164.938-164.938c5.859-5.858 15.355-5.858 21.213 0s5.859 15.355 0 21.215l-164.936 164.935c2.135 2.137 23.348 23.35 21.213 21.215 5.858 5.858 15.355 5.858 21.213 0l162.836-162.837c36.085 4.089 71.561-7.923 97.559-33.92 22.311-22.311 34.669-51.925 34.805-83.383.02-6.07-3.616-11.591-9.23-13.911-5.614-2.34-12.078-1.057-16.375 3.243l-51.625 51.623-53.033-10.605-10.607-53.033 51.625-51.625c4.299-4.299 5.583-10.761 3.243-16.375-2.331-5.625-7.852-9.261-13.911-9.23-31.458.135-61.071 12.491-83.383 34.803-25.997 25.997-38.009 61.476-33.92 97.56l-162.838 162.837c-5.857 5.858-5.857 15.355 0 21.213z"/></g></svg>